# xmcd
#
# Track frame offsets: 
#        150
#        19217
#        47612
#        74260
#        92540
#        113022
#        139957
#        159845
#        173750
#        193955
#        212435
#        233735
#        256662
#
# Disc length: 3636 seconds
#
# Revision: 34
# Processed by: cddbd v1.5.2PL0 Copyright (c) Steve Scherf et al.
# Submitted via: ExactAudioCopy v1.0b3
#
DISCID=a50e320d
DTITLE=aiko - ? ??????
DYEAR=2002
DGENRE=Pop
TTITLE0=マント
TTITLE1=赤いランプ
TTITLE2=海の終わり
TTITLE3=陽と陰
TTITLE4=鳩になりたい
TTITLE5=おやすみなさい
TTITLE6=今度までには
TTITLE7=クローゼット
TTITLE8=あなたと握手
TTITLE9=相合傘 (汗かきMix)
TTITLE10=それだけ
TTITLE11=木星
TTITLE12=心に乙女
EXTD=
EXTT0=
EXTT1=
EXTT2=
EXTT3=
EXTT4=
EXTT5=
EXTT6=
EXTT7=
EXTT8=
EXTT9=
EXTT10=
EXTT11=
EXTT12=
PLAYORDER=
